<svg xmlns="http://www.w3.org/2000/svg" width="256" height="256" viewBox="0 0 256 256"><defs><linearGradient id="a" x1="0.5" x2="0.5" y2="1"><stop offset="0" stop-color="#41D1FF"/><stop offset="1" stop-color="#BD34FE"/></linearGradient><linearGradient id="b" x1="0.5" x2="0.5" y2="1"><stop offset="0" stop-color="#FFEA83"/><stop offset="0.08" stop-color="#FFDD35"/><stop offset="1" stop-color="#FFA800"/></linearGradient></defs><path fill="url(#a)" d="M255.15 163.51a11.1 11.1 0 0 1-13.83 8.35l-57.51-18.42a11.11 11.11 0 0 1-5.63-1.89L76.12 69.46a11.1 11.1 0 0 1-4-13.62L103.38 5.1a11.1 11.1 0 0 1 13.62-4S178.2 24.3 228.6 48.06c42.5 19.99 43.56 50.84 26.55 115.45z"/><path fill="url(#b)" d="M117.84 255.43c-1.3-.1-2.6-.33-3.86-.7l-1.12-.33c-38.31-11.49-65.2-49.2-65.2-90.87V79.6a11.1 11.1 0 0 1 7.21-10.43l37.8-14.28a11.1 11.1 0 0 1 13.11 4.78l55.88 123.47a11.1 11.1 0 0 1-4.78 13.11l-24.83 9.38-3.3 1.24c-1.25.47-2.52.88-3.8 1.23l-3.32.9c-4.47 1.21-9.03 1.83-13.63 1.83z"/></svg>
